<svg width="41" height="35" viewBox="0 0 41 35" fill="none" xmlns="http://www.w3.org/2000/svg">
<path fill-rule="evenodd" clip-rule="evenodd" d="M14.6667 12.8333H18.3333H40.3333V16.5C39.1478 16.5 38.1783 17.3566 38.0309 18.5339L37.4544 23.1387C37.1191 25.8227 35.6123 28.0961 33.5085 29.5374L34.8333 34.8333H31.0557L30.096 30.9948C29.5317 31.1042 28.9523 31.1667 28.3594 31.1667H11.974C11.381 31.1667 10.8017 31.1043 10.2373 30.9948L9.27767 34.8333H5.5L6.82487 29.5374C4.72073 28.0954 3.21421 25.8202 2.87891 23.1351L2.30241 18.5303C2.15518 17.3555 1.18552 16.5 0 16.5V12.8333H14.6667ZM5.48926 16.5H34.8441C34.6317 16.9984 34.4629 17.5202 34.3929 18.0791L33.8164 22.6839C33.471 25.4487 31.1471 27.5 28.3594 27.5H11.974C9.18628 27.5 6.86245 25.4509 6.51693 22.6839V22.6803L5.94043 18.0755C5.87055 17.518 5.70093 16.9972 5.48926 16.5Z" fill="#234467"/>
<path d="M18.3333 0C16.3294 0 14.6667 1.66272 14.6667 3.66667V9.16667H18.3333V3.66667H23.8333V5.5H22V9.16667H29.3333V5.5H27.5V3.66667C27.5 1.66272 25.8373 0 23.8333 0H18.3333Z" fill="#3F75A3"/>
</svg>
