<svg width="678" height="80" viewBox="0 0 678 80" fill="none" xmlns="http://www.w3.org/2000/svg">
<path d="M668.359 1.98438L673.959 5.16238L677.599 5.16238L677.599 7.05238L673.973 7.05238L668.359 10.2444L668.359 8.14439L672.027 6.10038L668.359 4.07038L668.359 1.98438Z" fill="#3F75A3"/>
<path d="M677.599 21.2618L670.067 21.2618L670.067 24.2158L668.359 24.2158L668.359 16.4038L670.067 16.4038L670.067 19.3718L677.599 19.3718L677.599 21.2618Z" fill="#3F75A3"/>
<path d="M677.599 34.6797L668.359 34.6797L668.359 32.7897L675.891 32.7897L675.891 28.7437L677.599 28.7437L677.599 34.6797Z" fill="#3F75A3"/>
<path d="M677.599 43.7114L676.395 44.2294L676.395 48.0094L677.599 48.5274L677.599 50.5574L668.191 46.4274L668.191 45.7974L677.599 41.6814L677.599 43.7114ZM674.841 44.8874L671.719 46.1194L674.841 47.3514L674.841 44.8874Z" fill="#3F75A3"/>
<path d="M677.599 63.4409L668.359 63.4409L668.359 57.2249L670.067 57.2249L670.067 61.5509L671.943 61.5509L671.943 58.3729L673.553 58.3729L673.553 61.5509L675.891 61.5509L675.891 57.0569L677.599 57.0569L677.599 63.4409Z" fill="#3F75A3"/>
<path d="M677.599 70.338L677.599 72.466L674.337 74.86L674.337 76.246L677.599 76.246L677.599 78.136L668.359 78.136L668.359 74.664C668.359 73.6933 668.635 72.8953 669.185 72.27C669.736 71.6447 670.455 71.332 671.341 71.332C671.92 71.332 672.443 71.4767 672.909 71.766C673.367 72.046 673.721 72.4427 673.973 72.956L677.599 70.338ZM670.025 76.246L672.671 76.246L672.671 74.664C672.671 74.2253 672.55 73.8847 672.307 73.642C672.065 73.39 671.743 73.264 671.341 73.264C670.949 73.264 670.632 73.3947 670.389 73.656C670.147 73.908 670.025 74.244 670.025 74.664L670.025 76.246Z" fill="#3F75A3"/>
<path d="M543.469 79.2V0H604.669C619.069 0 633.469 0 633.469 16.2V28.2C633.469 44.4 619.069 44.4 604.669 44.4H603.469L638.269 79.2H616.669L581.869 44.4H561.469V79.2H543.469ZM561.469 34.2H608.269C611.869 34.2 615.469 34.2 615.469 30V14.4C615.469 10.2 611.869 10.2 608.269 10.2H561.469V34.2Z" fill="#234467"/>
<path d="M421.111 79.2L460.711 0H483.511L523.111 79.2H505.111L492.511 54H451.711L439.111 79.2H421.111ZM456.511 44.4H487.711L472.111 13.2L456.511 44.4Z" fill="#234467"/>
<path d="M321.51 0H340.11L372.51 64.8L404.91 0H423.51L383.91 79.2H361.11L321.51 0Z" fill="#234467"/>
<path d="M232.715 79.2V0H250.715V69H316.715V79.2H232.715Z" fill="#234467"/>
<path d="M116.357 63V0H134.357V64.8C134.357 69 137.957 69 141.557 69H181.157C184.757 69 188.357 69 188.357 64.8V0H206.357V63C206.357 79.2 191.957 79.2 177.557 79.2H145.157C130.757 79.2 116.357 79.2 116.357 63Z" fill="#234467"/>
<path d="M0 79.2V0H60C74.4 0 88.8 0 88.8 16.2V22.8C88.8 30 84 33.6 79.2 34.8C84 36 90 38.4 90 46.8V63C90 79.2 75.6 79.2 61.2 79.2H0ZM18 69H64.8C68.4 69 72 69 72 64.8V44.4C72 40.2 68.4 40.2 64.8 40.2H18V69ZM18 30H63.6C67.2 30 70.8 30 70.8 25.8V14.4C70.8 10.2 67.2 10.2 63.6 10.2H18V30Z" fill="#234467"/>
</svg>
