<svg width="30" height="35" viewBox="0 0 30 35" fill="none" xmlns="http://www.w3.org/2000/svg">
<path d="M14.6896 31.6999C14.6746 31.7001 14.6596 31.7001 14.6447 31.6999H1.46667H0V34.9998H1.46667H27.8667H29.3333V31.6999H27.8667H14.6896Z" fill="#234467"/>
<path d="M14.6896 0C14.6746 0.000228882 14.6596 0.000228882 14.6447 0H1.46667H0V3.29991H1.46667H27.8667H29.3333V0H27.8667H14.6896Z" fill="#234467"/>
<path d="M15.168 5.5L9.66797 10.7H13.793V26.3H9.66797L15.168 31.5L20.668 26.3H16.543V10.7H20.668L15.168 5.5Z" fill="#3F75A3"/>
<path opacity="0.3" d="M1.47057 8.23315C1.08159 8.23315 0.708536 8.38768 0.433483 8.66273C0.15843 8.93778 0.00390625 9.31084 0.00390625 9.69982C0.00390625 10.0888 0.15843 10.4619 0.433483 10.7369C0.708536 11.012 1.08159 11.1665 1.47057 11.1665C1.85956 11.1665 2.23261 11.012 2.50766 10.7369C2.78272 10.4619 2.93724 10.0888 2.93724 9.69982C2.93724 9.31084 2.78272 8.93778 2.50766 8.66273C2.23261 8.38768 1.85956 8.23315 1.47057 8.23315ZM27.8706 8.23315C27.4816 8.23315 27.1085 8.38768 26.8335 8.66273C26.5584 8.93778 26.4039 9.31084 26.4039 9.69982C26.4039 10.0888 26.5584 10.4619 26.8335 10.7369C27.1085 11.012 27.4816 11.1665 27.8706 11.1665C28.2596 11.1665 28.6326 11.012 28.9077 10.7369C29.1827 10.4619 29.3372 10.0888 29.3372 9.69982C29.3372 9.31084 29.1827 8.93778 28.9077 8.66273C28.6326 8.38768 28.2596 8.23315 27.8706 8.23315ZM1.47057 14.0998C1.08159 14.0998 0.708536 14.2543 0.433483 14.5294C0.15843 14.8045 0.00390625 15.1775 0.00390625 15.5665C0.00390625 15.9555 0.15843 16.3285 0.433483 16.6036C0.708536 16.8786 1.08159 17.0332 1.47057 17.0332C1.85956 17.0332 2.23261 16.8786 2.50766 16.6036C2.78272 16.3285 2.93724 15.9555 2.93724 15.5665C2.93724 15.1775 2.78272 14.8045 2.50766 14.5294C2.23261 14.2543 1.85956 14.0998 1.47057 14.0998ZM27.8706 14.0998C27.4816 14.0998 27.1085 14.2543 26.8335 14.5294C26.5584 14.8045 26.4039 15.1775 26.4039 15.5665C26.4039 15.9555 26.5584 16.3285 26.8335 16.6036C27.1085 16.8786 27.4816 17.0332 27.8706 17.0332C28.2596 17.0332 28.6326 16.8786 28.9077 16.6036C29.1827 16.3285 29.3372 15.9555 29.3372 15.5665C29.3372 15.1775 29.1827 14.8045 28.9077 14.5294C28.6326 14.2543 28.2596 14.0998 27.8706 14.0998ZM1.47057 19.9665C1.08159 19.9665 0.708536 20.121 0.433483 20.3961C0.15843 20.6711 0.00390625 21.0442 0.00390625 21.4332C0.00390625 21.8221 0.15843 22.1952 0.433483 22.4702C0.708536 22.7453 1.08159 22.8998 1.47057 22.8998C1.85956 22.8998 2.23261 22.7453 2.50766 22.4702C2.78272 22.1952 2.93724 21.8221 2.93724 21.4332C2.93724 21.0442 2.78272 20.6711 2.50766 20.3961C2.23261 20.121 1.85956 19.9665 1.47057 19.9665ZM27.8706 19.9665C27.4816 19.9665 27.1085 20.121 26.8335 20.3961C26.5584 20.6711 26.4039 21.0442 26.4039 21.4332C26.4039 21.8221 26.5584 22.1952 26.8335 22.4702C27.1085 22.7453 27.4816 22.8998 27.8706 22.8998C28.2596 22.8998 28.6326 22.7453 28.9077 22.4702C29.1827 22.1952 29.3372 21.8221 29.3372 21.4332C29.3372 21.0442 29.1827 20.6711 28.9077 20.3961C28.6326 20.121 28.2596 19.9665 27.8706 19.9665ZM1.47057 25.8332C1.08159 25.8332 0.708536 25.9877 0.433483 26.2627C0.15843 26.5378 0.00390625 26.9108 0.00390625 27.2998C0.00390625 27.6888 0.15843 28.0619 0.433483 28.3369C0.708536 28.612 1.08159 28.7665 1.47057 28.7665C1.85956 28.7665 2.23261 28.612 2.50766 28.3369C2.78272 28.0619 2.93724 27.6888 2.93724 27.2998C2.93724 26.9108 2.78272 26.5378 2.50766 26.2627C2.23261 25.9877 1.85956 25.8332 1.47057 25.8332ZM27.8706 25.8332C27.4816 25.8332 27.1085 25.9877 26.8335 26.2627C26.5584 26.5378 26.4039 26.9108 26.4039 27.2998C26.4039 27.6888 26.5584 28.0619 26.8335 28.3369C27.1085 28.612 27.4816 28.7665 27.8706 28.7665C28.2596 28.7665 28.6326 28.612 28.9077 28.3369C29.1827 28.0619 29.3372 27.6888 29.3372 27.2998C29.3372 26.9108 29.1827 26.5378 28.9077 26.2627C28.6326 25.9877 28.2596 25.8332 27.8706 25.8332Z" fill="#234467"/>
</svg>
