<svg width="63" height="53" viewBox="0 0 63 53" fill="none" xmlns="http://www.w3.org/2000/svg">
<path fill-rule="evenodd" clip-rule="evenodd" d="M0 12C0 5.40116 5.40116 0 12 0C12.6365 6.36405e-05 13.2469 0.25294 13.697 0.703014C14.1471 1.15309 14.3999 1.7635 14.4 2.4V7.2H60C60.6365 7.20006 61.2469 7.45294 61.697 7.90301C62.1471 8.35309 62.3999 8.9635 62.4 9.6V50.4C62.3999 51.0365 62.1471 51.6469 61.697 52.097C61.2469 52.5471 60.6365 52.7999 60 52.8H12C5.48179 52.8 0.143814 47.5277 0.0140625 41.0391C0.00540018 40.9597 0.000706879 40.8799 0 40.8V12ZM57.6 12H14.4V31.2C14.3999 31.8365 14.1471 32.4469 13.697 32.897C13.2469 33.3471 12.6365 33.5999 12 33.6C7.99564 33.6 4.8 36.7956 4.8 40.8C4.8 44.8044 7.99564 48 12 48H57.6V12Z" fill="#3F75A3"/>
<path d="M24 19.2C23.3635 19.2001 22.7531 19.4529 22.303 19.903C21.8529 20.3531 21.6001 20.9635 21.6 21.6V38.4C21.6001 39.0365 21.8529 39.6469 22.303 40.097C22.7531 40.5471 23.3635 40.7999 24 40.8H35.5969C35.8561 40.8428 36.1205 40.8428 36.3797 40.8H48C48.6365 40.7999 49.2469 40.5471 49.697 40.097C50.1471 39.6469 50.3999 39.0365 50.4 38.4V21.6C50.3999 20.9635 50.1471 20.3531 49.697 19.903C49.2469 19.4529 48.6365 19.2001 48 19.2H40.8C40.482 19.1955 40.1662 19.2543 39.8711 19.3728C39.576 19.4914 39.3074 19.6675 39.0809 19.8908C38.8544 20.1141 38.6745 20.3802 38.5518 20.6736C38.429 20.967 38.3658 21.2819 38.3658 21.6C38.3658 21.9181 38.429 22.2329 38.5518 22.5264C38.6745 22.8198 38.8544 23.0859 39.0809 23.3092C39.3074 23.5325 39.576 23.7086 39.8711 23.8271C40.1662 23.9457 40.482 24.0045 40.8 24H45.6V36H38.4V31.2C38.4044 30.8789 38.3443 30.5602 38.2233 30.2627C38.1023 29.9653 37.9229 29.6951 37.6956 29.4683C37.4683 29.2414 37.1978 29.0625 36.9001 28.9421C36.6024 28.8216 36.2836 28.7622 35.9625 28.7672C35.3268 28.7771 34.721 29.0389 34.2781 29.495C33.8352 29.9511 33.5913 30.5643 33.6 31.2V36H26.4V24H31.2C31.518 24.0045 31.8338 23.9457 32.1289 23.8271C32.424 23.7086 32.6926 23.5325 32.9191 23.3092C33.1456 23.0859 33.3255 22.8198 33.4482 22.5264C33.571 22.2329 33.6342 21.9181 33.6342 21.6C33.6342 21.2819 33.571 20.967 33.4482 20.6736C33.3255 20.3802 33.1456 20.1141 32.9191 19.8908C32.6926 19.6675 32.424 19.4914 32.1289 19.3728C31.8338 19.2543 31.518 19.1955 31.2 19.2H24Z" fill="#234467"/>
</svg>
