<svg width="242" height="92" viewBox="0 0 242 92" fill="none" xmlns="http://www.w3.org/2000/svg">
<rect width="57" height="92" fill="#234467"/>
<path d="M77.54 64V49.48H88.54C91.18 49.48 93.82 49.48 93.82 52.45V53.66C93.82 54.98 92.94 55.64 92.06 55.86C92.94 56.08 94.04 56.52 94.04 58.06V61.03C94.04 64 91.4 64 88.76 64H77.54ZM80.84 62.13H89.42C90.08 62.13 90.74 62.13 90.74 61.36V57.62C90.74 56.85 90.08 56.85 89.42 56.85H80.84V62.13ZM80.84 54.98H89.2C89.86 54.98 90.52 54.98 90.52 54.21V52.12C90.52 51.35 89.86 51.35 89.2 51.35H80.84V54.98ZM108.112 61.03V49.48H111.412V61.36C111.412 62.13 112.072 62.13 112.732 62.13H119.992C120.652 62.13 121.312 62.13 121.312 61.36V49.48H124.612V61.03C124.612 64 121.972 64 119.332 64H113.392C110.752 64 108.112 64 108.112 61.03ZM138.685 64V49.48H141.985V62.13H154.085V64H138.685ZM164.204 49.48H167.614L173.554 61.36L179.494 49.48H182.904L175.644 64H171.464L164.204 49.48ZM191.704 64L198.964 49.48H203.144L210.404 64H207.104L204.794 59.38H197.314L195.004 64H191.704ZM198.194 57.62H203.914L201.054 51.9L198.194 57.62ZM223.376 64V49.48H234.596C237.236 49.48 239.876 49.48 239.876 52.45V54.65C239.876 57.62 237.236 57.62 234.596 57.62H234.376L240.756 64H236.796L230.416 57.62H226.676V64H223.376ZM226.676 55.75H235.256C235.916 55.75 236.576 55.75 236.576 54.98V52.12C236.576 51.35 235.916 51.35 235.256 51.35H226.676V55.75Z" fill="#234467"/>
<path d="M84.484 87H83.21L80.34 83.122H78.366V87H77.274V77.76H80.522C81.4087 77.76 82.1227 78.012 82.664 78.516C83.2053 79.0107 83.476 79.65 83.476 80.434C83.476 81.0593 83.3033 81.6007 82.958 82.058C82.6127 82.506 82.1367 82.8187 81.53 82.996L84.484 87ZM78.366 78.74V82.142H80.48C81.068 82.142 81.5253 81.9927 81.852 81.694C82.1787 81.386 82.342 80.9707 82.342 80.448C82.342 79.9347 82.174 79.524 81.838 79.216C81.5113 78.8987 81.0587 78.74 80.48 78.74H78.366ZM94.383 87V77.76H100.305V78.74H95.475V81.568H99.171V82.548H95.475V86.02H100.473V87H94.383ZM117.125 87L116.341 85.124H111.805L111.021 87H109.873L113.877 77.606H114.283L118.287 87H117.125ZM115.921 84.144L114.073 79.594L112.225 84.144H115.921ZM128.396 87V77.76H129.488V86.02H133.87V87H128.396ZM144.368 87V78.74H141.12V77.76H148.722V78.74H145.46V87H144.368ZM165.453 77.76L162.247 83.178V87H161.155V83.178L157.949 77.76H159.181L161.701 82.1L164.235 77.76H165.453Z" fill="#234467"/>
<path d="M15.5255 72.1701V80H35.1507C39.144 80 42.3811 76.4944 42.3811 72.1701V80H50V64.5H37.6592C37.6592 68.7361 34.4882 72.1701 30.5764 72.1701H15.5255Z" fill="white"/>
<path d="M29.1008 57.4691H49.9066V49H29.396C17.5793 49 8 59.3736 8 72.1701H15.5255C15.5255 64.0509 21.6034 57.4691 29.1008 57.4691Z" fill="white"/>
</svg>
