<svg width="728" height="802" viewBox="0 0 728 802" fill="none" xmlns="http://www.w3.org/2000/svg">
<path opacity="0.2" d="M-38 216.313L268.881 0.610352M-38 216.313V1143.61H151.415V83.1758M-38 216.313L151.415 83.1758M268.881 0.610352L453.891 129.587V295.782M268.881 0.610352L151.415 83.1758M453.891 489.832L583.104 580.654V1143.61H727V500.153L583.104 399.01L453.891 489.832ZM453.891 489.832V295.782M453.891 489.832L380.474 438.229V1143.61H199.869V563.215L268.881 512.069V165.741M151.415 83.1758L268.881 165.741M268.881 165.741L453.891 295.782" stroke="url(#paint0_linear_116_4363)"/>
<defs>
<linearGradient id="paint0_linear_116_4363" x1="344.5" y1="0.610352" x2="344.5" y2="1080.86" gradientUnits="userSpaceOnUse">
<stop stop-color="#3F75A3"/>
<stop offset="1" stop-color="#3F75A3" stop-opacity="0"/>
</linearGradient>
</defs>
</svg>
