<svg width="267" height="333" viewBox="0 0 267 333" fill="none" xmlns="http://www.w3.org/2000/svg">
<path opacity="0.78" d="M0.5 94.0179L138.11 0.603516M0.5 94.0179V495.604H85.4361V36.3602M0.5 94.0179L85.4361 36.3602M138.11 0.603516L221.07 56.4595V128.434M138.11 0.603516L85.4361 36.3602M221.07 212.471L279.011 251.804V495.604H343.536V216.941L279.011 173.139L221.07 212.471ZM221.07 212.471V128.434M221.07 212.471L188.149 190.123V495.604H107.164V244.251L138.11 222.102V72.1169M85.4361 36.3602L138.11 72.1169M138.11 72.1169L221.07 128.434" stroke="url(#paint0_linear_11_3328)"/>
<defs>
<linearGradient id="paint0_linear_11_3328" x1="172.018" y1="0.603516" x2="172.018" y2="495.604" gradientUnits="userSpaceOnUse">
<stop stop-color="#3F75A3"/>
<stop offset="1" stop-color="#3F75A3" stop-opacity="0.4"/>
</linearGradient>
</defs>
</svg>
