<svg width="166" height="130" viewBox="0 0 166 130" fill="none" xmlns="http://www.w3.org/2000/svg">
<rect x="51" width="57" height="76" fill="#234467"/>
<path d="M1.54 102V87.48H12.54C15.18 87.48 17.82 87.48 17.82 90.45V91.66C17.82 92.98 16.94 93.64 16.06 93.86C16.94 94.08 18.04 94.52 18.04 96.06V99.03C18.04 102 15.4 102 12.76 102H1.54ZM4.84 100.13H13.42C14.08 100.13 14.74 100.13 14.74 99.36V95.62C14.74 94.85 14.08 94.85 13.42 94.85H4.84V100.13ZM4.84 92.98H13.2C13.86 92.98 14.52 92.98 14.52 92.21V90.12C14.52 89.35 13.86 89.35 13.2 89.35H4.84V92.98ZM32.1123 99.03V87.48H35.4123V99.36C35.4123 100.13 36.0723 100.13 36.7323 100.13H43.9923C44.6523 100.13 45.3123 100.13 45.3123 99.36V87.48H48.6123V99.03C48.6123 102 45.9723 102 43.3323 102H37.3923C34.7523 102 32.1123 102 32.1123 99.03ZM62.6845 102V87.48H65.9845V100.13H78.0845V102H62.6845ZM88.2037 87.48H91.6137L97.5537 99.36L103.494 87.48H106.904L99.6437 102H95.4637L88.2037 87.48ZM115.704 102L122.964 87.48H127.144L134.404 102H131.104L128.794 97.38H121.314L119.004 102H115.704ZM122.194 95.62H127.914L125.054 89.9L122.194 95.62ZM147.376 102V87.48H158.596C161.236 87.48 163.876 87.48 163.876 90.45V92.65C163.876 95.62 161.236 95.62 158.596 95.62H158.376L164.756 102H160.796L154.416 95.62H150.676V102H147.376ZM150.676 93.75H159.256C159.916 93.75 160.576 93.75 160.576 92.98V90.12C160.576 89.35 159.916 89.35 159.256 89.35H150.676V93.75Z" fill="#234467"/>
<path d="M46.484 125H45.21L42.34 121.122H40.366V125H39.274V115.76H42.522C43.4087 115.76 44.1227 116.012 44.664 116.516C45.2053 117.011 45.476 117.65 45.476 118.434C45.476 119.059 45.3033 119.601 44.958 120.058C44.6127 120.506 44.1367 120.819 43.53 120.996L46.484 125ZM40.366 116.74V120.142H42.48C43.068 120.142 43.5253 119.993 43.852 119.694C44.1787 119.386 44.342 118.971 44.342 118.448C44.342 117.935 44.174 117.524 43.838 117.216C43.5113 116.899 43.0587 116.74 42.48 116.74H40.366ZM56.383 125V115.76H62.305V116.74H57.475V119.568H61.171V120.548H57.475V124.02H62.473V125H56.383ZM79.1247 125L78.3407 123.124H73.8047L73.0207 125H71.8727L75.8767 115.606H76.2827L80.2867 125H79.1247ZM77.9207 122.144L76.0727 117.594L74.2247 122.144H77.9207ZM90.3959 125V115.76H91.4879V124.02H95.8699V125H90.3959ZM106.368 125V116.74H103.12V115.76H110.722V116.74H107.46V125H106.368ZM127.453 115.76L124.247 121.178V125H123.155V121.178L119.949 115.76H121.181L123.701 120.1L126.235 115.76H127.453Z" fill="#234467"/>
<path d="M65.5255 56.1701V64H85.1507C89.144 64 92.3811 60.4944 92.3811 56.1701V64H100V48.5H87.6592C87.6592 52.7361 84.4882 56.1701 80.5764 56.1701H65.5255Z" fill="white"/>
<path d="M79.1008 41.4691H99.9066V33H79.396C74.1039 33 69.2606 35.0806 65.5255 38.5277C60.9205 42.7775 58 49.1045 58 56.1701H65.5255C65.5255 48.0509 71.6034 41.4691 79.1008 41.4691Z" fill="white"/>
<path d="M58 56.1701C58 49.1045 60.9205 42.7775 65.5255 38.5277V33H58V56.1701Z" fill="white"/>
</svg>
