<svg width="33" height="37" viewBox="0 0 33 37" fill="none" xmlns="http://www.w3.org/2000/svg">
<path fill-rule="evenodd" clip-rule="evenodd" d="M0 20.1667V18.3333H3.66667H11H14.6667H31.1667H33V20.1667C33 25.2897 29.9798 29.5843 25.6667 32.291V36.6667H7.33333V32.291C3.02024 29.5843 0 25.2897 0 20.1667ZM5.5 11V5.5H9.16667V11H5.5ZM28.764 22H4.236C4.89138 25.1641 6.75916 27.9606 10.0404 29.738L11 30.2572V33H22V30.2572L22.9596 29.738C26.2408 27.9606 28.1086 25.1641 28.764 22Z" fill="#234467"/>
<path d="M3.66667 0C2.70926 0 1.73321 0.35077 1.04199 1.04199C0.35077 1.73321 0 2.70926 0 3.66667V15.3333H3.66667V3.66667H11V15.3333H14.6667V3.66667C14.6667 2.70926 14.3159 1.73321 13.6247 1.04199C12.9335 0.35077 11.9574 0 11 0H3.66667Z" fill="#3F75A3"/>
</svg>
